HIERARCHY
ROOT Hips
{
	OFFSET 0.000000 0.000000 0.000000 
	CHANNELS 6 Xposition Yposition Zposition Yrotation Zrotation Xrotation 
	JOINT Lumbar
	{
		OFFSET 0.000000 0.000000 0.000000 
		CHANNELS 3 Zrotation Xrotation Yrotation
		JOINT Neck
		{
			OFFSET 0.000000 0.445665 0.000000 
			CHANNELS 3 Zrotation Xrotation Yrotation
			End Site
			{
				OFFSET 0.000000 0.227535 0.000000 
			}
		}
		JOINT RightShoulder
		{
			OFFSET 0.019635 0.377685 0.194865 
			CHANNELS 3 Zrotation Xrotation Yrotation
			JOINT RightElbow
			{
				OFFSET 0.000000 -0.243375 0.000000 
				CHANNELS 2 Zrotation Yrotation
				JOINT RightWrist
				{
					OFFSET 0.000000 -0.264825 0.000000 
					CHANNELS 2 Zrotation Xrotation
					End Site
					{
						OFFSET 0.006600 -0.176220 0.000990 
					}
				}
			}
		}
		JOINT LeftShoulder
		{
			OFFSET 0.019635 0.377685 -0.194865 
			CHANNELS 3 Zrotation Xrotation Yrotation
			JOINT LeftElbow
			{
				OFFSET 0.000000 -0.243375 0.000000 
				CHANNELS 2 Zrotation Yrotation
				JOINT LeftWrist
				{
					OFFSET 0.000000 -0.264825 0.000000 
					CHANNELS 2 Zrotation Xrotation
					End Site
					{
						OFFSET 0.006600 -0.176220 -0.000990 
					}
				}
			}
		}
	}
	JOINT RightHip
	{
		OFFSET 0.052140 -0.069960 0.075570 
		CHANNELS 3 Zrotation Xrotation Yrotation
		JOINT RightKnee
		{
			OFFSET 0.000000 -0.402270 0.000000 
			CHANNELS 1 Zrotation
			JOINT RightAnkle
			{
				OFFSET 0.000000 -0.404085 0.000000 
				CHANNELS 3 Zrotation Xrotation Yrotation
				End Site
				{
					OFFSET 0.204105 -0.089430 0.008415 
				}
			}
		}
	}
	JOINT LeftHip
	{
		OFFSET 0.052140 -0.069960 -0.075570 
		CHANNELS 3 Zrotation Xrotation Yrotation
		JOINT LeftKnee
		{
			OFFSET 0.000000 -0.402270 0.000000 
			CHANNELS 1 Zrotation
			JOINT LeftAnkle
			{
				OFFSET 0.000000 -0.404085 0.000000 
				CHANNELS 3 Zrotation Xrotation Yrotation
				End Site
				{
					OFFSET 0.204105 -0.089430 -0.008415 
				}
			}
		}
	}
}
MOTION
Frames: 33
Frame Time: 0.02
-1.63122 -0.31973 -0.2537 968.0484 -48.7697 6.69847 50.91587 3.4538 7.55058 -5.84335 -5.77793 -2.11994 -36.4702 -6.97639 7.30706 73.73913 117.88699 18.56681 4.27157 -31.36227 8.37127 -6.5714 72.5633 -127.8864 21.15869 -6.0988 19.78032 10.37338 11.44967 -0.43985 5.96603 -33.09162 -18.51384 68.89023 16.5873 6.21881 -28.61655 -11.69451 3.97745 4.44568
-1.63325 -0.32056 -0.23343 968.03607 -48.60035 6.6657 51.63444 3.11772 6.99069 -6.35599 -5.43083 -2.11994 -35.98678 -6.86767 7.10682 73.18904 115.03721 18.26349 3.70053 -31.64558 8.00957 -5.92539 72.66802 -124.69916 20.63717 -5.47744 19.75989 9.4394 8.28036 -2.88886 3.5622 -29.43708 -16.69543 68.20153 16.02621 5.51536 -29.68538 -11.64738 3.996 4.45251
-1.63489 -0.32065 -0.21222 968.22654 -48.34827 6.71218 52.41462 2.74184 6.4194 -6.98166 -5.0183 -2.11994 -35.41726 -6.77466 6.97434 72.48841 110.78184 17.58974 2.90458 -31.84327 7.81647 -5.45183 72.49992 -118.75341 19.31208 -4.39724 20.08895 8.32874 1.36816 -6.08886 0.81576 -21.08722 -12.60994 67.33092 15.23017 4.44119 -30.68447 -11.52406 4.02428 4.46015
-1.63664 -0.32105 -0.19147 968.34592 -48.12788 6.72668 53.15689 2.38108 5.84835 -7.54975 -4.63492 -2.11994 -34.8878 -6.68041 6.81944 71.87702 107.31564 17.12699 2.23519 -32.07718 7.54415 -4.90323 72.46692 -114.45085 18.48507 -3.58921 20.31986 7.30215 -3.55256 -9.0299 -1.71343 -15.19895 -9.71316 66.5159 14.559 3.6391 -31.68065 -11.42269 4.04304 4.46418
-1.63864 -0.32155 -0.1705 968.37329 -47.93344 6.72644 53.94881 2.03129 5.29823 -8.14781 -4.25091 -2.11994 -34.35273 -6.56392 6.62942 71.18017 103.20305 16.48741 1.459 -32.32354 7.26697 -4.32225 72.39704 -108.62205 17.14676 -2.52963 20.29634 6.24927 -9.56503 -11.63819 -4.50693 -8.10465 -6.22557 65.80614 13.81124 2.42123 -32.83523 -11.37349 4.08134 4.48083
-1.64002 -0.32168 -0.14982 968.64404 -47.66457 6.77438 54.64653 1.65009 4.70092 -8.70789 -3.85456 -2.11994 -33.81006 -6.49633 6.52861 70.62446 100.11206 16.12883 0.85398 -32.52251 7.04906 -3.86131 72.33331 -105.22857 16.64613 -1.87159 20.88453 5.21751 -14.25134 -15.1021 -6.82732 -2.33384 -3.39732 64.83926 13.16523 1.95954 -33.63942 -11.19954 4.08231 4.47203
-1.63982 -0.32096 -0.12998 969.50855 -47.21508 6.94149 55.09887 1.18864 3.98748 -9.14706 -3.43158 -2.11994 -33.26162 -6.56239 6.65745 70.49812 100.11843 16.60912 0.76792 -32.62084 6.91467 -3.63061 72.37869 -109.78311 18.87578 -2.52194 23.08401 4.23309 -14.27309 -20.86457 -7.78468 -1.4293 -2.97938 63.18487 12.88444 3.84688 -33.48287 -10.68116 3.97362 4.3896
-1.63898 -0.31992 -0.1105 970.61688 -46.6929 7.15292 55.44818 0.69807 3.22545 -9.54149 -3.00044 -2.11994 -32.71011 -6.67681 6.87404 70.51867 101.20733 17.38636 0.86297 -32.67309 6.84183 -3.52586 72.43437 -116.78278 21.93503 -3.57653 25.88534 3.28656 -12.86639 -27.43531 -8.24879 -1.98239 -3.286 61.28367 12.71059 6.47767 -32.97635 -10.04326 3.82775 4.28209
-1.6384 -0.31905 -0.09097 971.63178 -46.20044 7.34036 55.82415 0.22269 2.47775 -9.94847 -2.57888 -2.11994 -32.1635 -6.76645 7.05007 70.46917 101.85545 18.04893 0.88262 -32.73979 6.76973 -3.40625 72.46693 -122.27917 24.46012 -4.38495 28.40614 2.35948 -12.18726 -33.56224 -8.9205 -1.80256 -3.22731 59.51016 12.46919 8.65261 -32.63463 -9.47225 3.70226 4.1884
-1.63795 -0.31804 -0.0709 972.57836 -45.71778 7.54746 56.28672 -0.26373 1.76041 -10.39255 -2.12989 -2.11994 -31.59753 -6.8664 7.23001 70.42631 102.26953 18.62554 0.8694 -32.82921 6.58741 -3.12077 72.56576 -129.28943 27.60355 -5.43322 30.9693 1.27281 -11.30087 -40.05506 -9.67382 -1.7602 -3.24312 57.66228 12.29507 11.3033 -32.26555 -8.84558 3.56357 4.08507
-1.63709 -0.31726 -0.05208 973.72504 -45.20019 7.72234 56.5446 -0.73181 0.97086 -10.74691 -1.73735 -2.11994 -31.07424 -6.9588 7.42343 70.40902 103.40737 19.44085 0.96532 -32.86364 6.64046 -3.19936 72.53529 -133.82108 29.68848 -6.09387 33.58192 0.52798 -10.46436 -45.94698 -10.13592 -1.83748 -3.3049 55.91604 12.01489 13.1564 -31.87228 -8.30734 3.4419 3.99513
-1.63532 -0.31721 -0.03661 975.34317 -44.58989 7.80378 56.25307 -1.15707 -0.02638 -10.86639 -1.49963 -2.11994 -30.65333 -6.99467 7.61664 70.40472 106.62986 20.98132 1.36601 -32.73875 7.38734 -4.33295 72.12285 -130.40364 28.45413 -5.49837 36.18659 0.73586 -10.05187 -50.15169 -9.90956 -1.91114 -3.32636 54.48701 11.36869 12.52191 -31.48837 -8.04401 3.38944 3.95454
-1.63316 -0.3174 -0.0224 977.15787 -43.94995 7.84991 55.76028 -1.56001 -1.09041 -10.89596 -1.31989 -2.11994 -30.27897 -7.02489 7.82205 70.42555 110.49063 22.7296 1.86335 -32.56374 8.35841 -5.81413 71.58564 -124.50392 26.16135 -4.5153 38.81687 1.28434 -9.73136 -53.68465 -9.40658 -2.0742 -3.37861 53.17444 10.6218 11.07903 -31.09431 -7.87411 3.353 3.92717
-1.63117 -0.31746 -0.00763 978.89479 -43.33326 7.90736 55.36583 -1.96296 -2.11108 -10.96514 -1.11595 -2.11994 -29.89438 -7.07422 8.03321 70.45023 113.82888 24.29126 2.28523 -32.42479 9.18582 -7.0808 71.1214 -120.10141 24.4898 -3.77151 41.43325 1.6655 -9.39281 -57.41455 -9.03148 -2.20406 -3.42107 51.8248 9.95334 10.07732 -30.71136 -7.66056 3.30041 3.88954
-1.62921 -0.3176 0.00717 980.58896 -42.67282 7.98545 54.93986 -2.40914 -3.18997 -11.03904 -0.90264 -2.11994 -29.46343 -7.05853 8.20374 70.41677 118.16191 26.24449 2.84302 -32.22936 10.18677 -8.58497 70.58794 -114.27216 22.2736 -2.78327 44.08494 2.09933 -8.91005 -61.64534 -8.62926 -2.3486 -3.46862 50.39844 9.15151 8.79459 -30.28856 -7.44692 3.28348 3.8687
-1.62709 -0.31765 0.02162 982.41896 -42.09725 8.01271 54.53176 -2.76033 -4.16084 -11.08116 -0.72267 -2.11994 -29.14024 -7.17237 8.45567 70.50686 120.59004 27.43734 3.14263 -32.13868 10.88505 -9.68254 70.16982 -110.73329 20.90605 -2.1965 46.65558 2.5057 -8.76314 -64.64413 -8.22547 -2.46775 -3.50499 49.16407 8.60096 7.88955 -29.95113 -7.25835 3.19718 3.81671
-1.62464 -0.31739 0.03544 984.546 -41.76556 7.8983 54.23406 -2.848 -4.8331 -11.06725 -0.62147 -2.11994 -29.10285 -7.67894 8.97165 70.94547 117.34772 26.39599 2.66874 -32.36386 10.63596 -9.50758 70.09317 -114.65302 22.34786 -2.90424 49.03955 2.73807 -9.55617 -64.55499 -7.87485 -2.47836 -3.49409 48.4223 8.7795 8.27323 -29.85223 -7.1071 2.91053 3.67284
-1.62203 -0.31705 0.04894 986.80694 -41.52047 7.73567 53.95977 -2.8418 -5.3907 -11.02268 -0.55185 -2.11994 -29.17252 -8.3096 9.5609 71.50435 112.21031 24.59691 1.93799 -32.69392 10.08375 -8.92138 70.13803 -120.86458 24.6418 -4.01237 51.32849 2.93403 -10.68059 -63.21541 -7.53574 -2.45921 -3.47047 47.87289 9.21177 9.05174 -29.84146 -6.98012 2.55476 3.49786
-1.61947 -0.31676 0.06257 989.02545 -41.23428 7.60124 53.66731 -2.88299 -5.9906 -10.9862 -0.46705 -2.11994 -29.19325 -8.86105 10.08823 71.99851 108.09961 23.19752 1.34781 -32.96661 9.70851 -8.56718 70.13251 -125.65475 26.40035 -4.87293 53.63119 3.15573 -11.64175 -62.34808 -7.20148 -2.45433 -3.45342 47.24237 9.52062 9.61491 -29.79176 -6.84864 2.23381 3.33891
-1.61699 -0.3164 0.07624 991.17475 -40.95342 7.43864 53.39883 -2.90404 -6.63603 -10.97196 -0.38717 -2.11994 -29.21624 -9.50839 10.73632 72.53589 103.30576 21.56991 0.65928 -33.27783 9.17989 -8.04094 70.10321 -131.91613 28.73034 -5.98907 56.06521 3.34895 -12.6737 -61.86999 -6.81796 -2.43952 -3.42912 46.58829 9.86088 10.30398 -29.73616 -6.69295 1.8984 3.17213
-1.61431 -0.31618 0.08977 993.49547 -40.68363 7.32426 53.08952 -2.94432 -7.15632 -10.90439 -0.30452 -2.11994 -29.26008 -9.98588 11.15081 73.01176 99.4857 20.23752 0.11483 -33.5352 8.89044 -7.76308 70.15263 -135.74891 30.10816 -6.68319 58.19544 3.59037 -13.61705 -60.28437 -6.53936 -2.4505 -3.42318 46.0285 10.19651 10.83247 -29.7147 -6.59204 1.57724 3.01445
-1.6112 -0.31632 0.10296 996.27213 -40.41296 7.3504 52.65545 -3.06637 -7.37759 -10.70573 -0.20061 -2.11994 -29.32865 -9.96104 10.89666 73.28575 98.72923 19.88079 0.01705 -33.61092 9.38103 -8.33716 70.40119 -131.80273 28.45961 -6.02554 59.57308 3.9535 -14.39692 -56.02925 -6.59051 -2.42231 -3.41204 45.6731 10.46449 10.84698 -29.76061 -6.63804 1.30601 2.88652
-1.60788 -0.3166 0.11604 999.21258 -40.15245 7.42779 52.18202 -3.20986 -7.47329 -10.45368 -0.09406 -2.11994 -29.41545 -9.76164 10.40625 73.49413 99.0282 19.84974 0.07486 -33.63017 10.11347 -9.16202 70.72307 -125.43412 25.86151 -4.94652 60.63781 4.36718 -15.04541 -50.69732 -6.74425 -2.44269 -3.43059 45.40688 10.71848 10.68647 -29.83921 -6.73764 1.05259 2.76932
-1.60461 -0.31684 0.1292 1002.06728 -39.89428 7.48472 51.73134 -3.34016 -7.61374 -10.22038 0.00823 -2.11994 -29.49816 -9.64401 10.0272 73.73401 98.90313 19.68629 0.07065 -33.68069 10.70388 -9.82663 71.00467 -120.53158 23.83006 -4.12193 61.80236 4.77094 -15.64752 -45.79876 -6.8194 -2.5171 -3.47404 45.10537 10.97422 10.59163 -29.90608 -6.81108 0.79516 2.64914
-1.60153 -0.31698 0.14222 1004.97552 -39.61005 7.52777 51.25945 -3.48255 -7.80137 -10.00766 0.12401 -2.11994 -29.56727 -9.52007 9.63237 73.97064 98.49096 19.43532 0.02249 -33.71235 11.41825 -10.67005 71.3205 -114.19473 21.26687 -3.05052 63.13635 5.12382 -16.70975 -41.06463 -7.01355 -2.26832 -3.35506 44.7893 11.25696 10.56416 -29.96166 -6.89271 0.51822 2.51993
-1.598 -0.31736 0.15552 1007.80815 -39.38099 7.61279 50.8238 -3.60501 -7.86348 -9.74176 0.21059 -2.11994 -29.66722 -9.36665 9.21523 74.19734 98.93526 19.44798 0.10411 -33.76704 11.93732 -11.20898 71.58 -110.20412 19.56263 -2.38149 64.05213 5.5885 -16.77729 -35.78368 -7.0044 -2.70575 -3.58149 44.52121 11.47839 10.35536 -30.04884 -6.97008 0.28691 2.41242
-1.59344 -0.31831 0.16952 1010.40056 -39.30498 7.7987 50.48451 -3.67628 -7.60087 -9.32612 0.23475 -2.11994 -29.85028 -9.1698 8.77738 74.40725 101.63941 20.16354 0.52403 -33.91142 11.84522 -10.81985 71.67244 -113.59252 20.56533 -2.98127 63.82155 6.40614 -14.14967 -28.96391 -6.22767 -5.00251 -4.74907 44.37121 11.52007 9.63806 -30.20215 -7.01914 0.17876 2.36274
-1.58841 -0.31949 0.18382 1012.90829 -39.28323 8.02542 50.18605 -3.72524 -7.21866 -8.86222 0.22622 -2.11994 -30.06239 -8.94943 8.32777 74.60928 105.15025 21.12735 1.06663 -34.07806 11.55166 -10.12202 71.70337 -119.35826 22.44257 -3.98855 63.19315 7.32433 -10.53085 -21.69285 -5.27134 -7.98267 -6.25958 44.26396 11.50207 8.75073 -30.38807 -7.06267 0.116 2.33461
-1.58352 -0.32059 0.19803 1015.44925 -39.23393 8.23573 49.87681 -3.77931 -6.89734 -8.43071 0.22024 -2.11994 -30.25952 -8.7425 7.89459 74.81859 108.20049 21.94475 1.54314 -34.226 11.36073 -9.58508 71.75831 -123.82102 23.84699 -4.77125 62.79316 8.15928 -7.33803 -14.82533 -4.52262 -10.67835 -7.62266 44.13138 11.51896 7.97394 -30.56731 -7.11073 0.0318 2.29639
-1.57894 -0.32159 0.21203 1018.02078 -39.19672 8.44018 49.53095 -3.85651 -6.54324 -7.95207 0.26566 -2.11994 -30.46636 -8.51855 7.40746 75.01236 111.68197 22.91244 2.07052 -34.40849 11.1331 -8.97154 71.83461 -129.13538 25.53422 -5.70503 62.18494 9.15367 -4.20064 -7.07787 -3.26712 -13.30683 -8.97062 44.02728 11.50188 7.05547 -30.71367 -7.15176 -0.04845 2.25969
-1.5736 -0.32285 0.22655 1020.50314 -39.14773 8.66411 49.2746 -3.87843 -6.23157 -7.56222 0.19703 -2.11994 -30.65776 -8.32595 7.03165 75.23461 114.44483 23.62494 2.51665 -34.52478 10.92872 -8.43868 71.84825 -133.27813 26.85588 -6.42732 61.91533 9.84019 -0.76858 -1.07491 -2.99618 -16.18514 -10.40679 43.87244 11.54257 6.38814 -30.93549 -7.20591 -0.12627 2.2249
-1.5664 -0.32483 0.24226 1022.78546 -39.04687 8.94585 49.22952 -3.76608 -6.05954 -7.41768 -0.18507 -2.11994 -30.81543 -8.23344 6.9791 75.56283 115.00591 23.54424 2.72931 -34.45502 10.85609 -8.22392 71.72563 -133.55808 26.92745 -6.45925 62.71901 9.64364 3.71299 0.03093 -5.72232 -20.0415 -12.21665 43.57102 11.74836 6.50452 -31.36262 -7.29397 -0.20917 2.18932
-1.55842 -0.32705 0.25851 1024.97458 -38.93309 9.24232 49.27782 -3.59622 -5.93638 -7.36644 -0.67932 -2.11994 -30.95369 -8.17312 7.03814 75.91613 114.81175 23.20087 2.85162 -34.31778 10.80913 -8.09629 71.53775 -132.59773 26.61079 -6.2679 63.87037 9.13559 8.37491 -0.64628 -9.40318 -24.04878 -14.06727 43.21678 12.01608 6.87022 -31.865 -7.39633 -0.29108 2.15505
